<?xml version="1.0" encoding="utf-8"?>
<!-- Generator: Adobe Illustrator 16.0.0, SVG Export Plug-In . SVG Version: 6.00 Build 0)  -->
<!DOCTYPE svg PUBLIC "-//W3C//DTD SVG 1.1//EN" "http://www.w3.org/Graphics/SVG/1.1/DTD/svg11.dtd">
<svg version="1.1" id="圖層_1" xmlns="http://www.w3.org/2000/svg" xmlns:xlink="http://www.w3.org/1999/xlink" x="0px" y="0px"
	 width="143.625px" height="294.208px" viewBox="0 0 143.625 294.208" enable-background="new 0 0 143.625 294.208"
	 xml:space="preserve">
<path fill="##42b883" stroke="#000000" stroke-miterlimit="10" d="M143.624,10.067c0,4.077-3.305,7.382-7.382,7.382H7.382
	C3.305,17.449,0,14.144,0,10.067l0,0c0-4.078,3.305-7.383,7.382-7.383h128.859C140.319,2.684,143.624,5.989,143.624,10.067
	L143.624,10.067z"/>
<path fill="##42b883" stroke="#000000" stroke-miterlimit="10" d="M7.2,137.718c-3.982-0.006-7.204-2.671-7.2-5.952L0.157,28.077
	c0.005-3.281,3.236-5.936,7.217-5.93l0,0c3.981,0.006,7.206,2.67,7.2,5.952l-0.156,103.689
	C14.413,135.069,11.182,137.724,7.2,137.718L7.2,137.718z"/>
<path fill="##42b883" stroke="#000000" stroke-miterlimit="10" d="M140.584,286.826c0,4.076-3.306,7.381-7.383,7.381H4.342
	c-4.077,0-7.382-3.305-7.382-7.381l0,0c0-4.078,3.305-7.383,7.382-7.383h128.859C137.278,279.443,140.584,282.748,140.584,286.826
	L140.584,286.826z"/>
<path fill="##42b883" stroke="#000000" stroke-miterlimit="10" d="M143.625,148.557c0,4.077-3.306,7.382-7.383,7.382H7.382
	c-4.077,0-7.382-3.305-7.382-7.382l0,0c0-4.078,3.305-7.383,7.382-7.383h128.859C140.319,141.174,143.625,144.479,143.625,148.557
	L143.625,148.557z"/>
<path fill="##42b883" stroke="#000000" stroke-miterlimit="10" d="M136.25,137.718c-3.982-0.007-7.204-2.671-7.2-5.952l0.157-103.689
	c0.005-3.281,3.236-5.936,7.217-5.93l0,0c3.981,0.006,7.205,2.67,7.199,5.952l-0.156,103.688
	C143.464,135.069,140.231,137.724,136.25,137.718L136.25,137.718z"/>
<path fill="##42b883" stroke="#000000" stroke-miterlimit="10" d="M7.2,274.06c-3.982-0.007-7.204-2.671-7.2-5.952l0.157-103.689
	c0.005-3.281,3.236-5.936,7.217-5.93l0,0c3.981,0.006,7.205,2.67,7.199,5.952l-0.156,103.688
	C14.414,271.411,11.181,274.066,7.2,274.06L7.2,274.06z"/>
<path fill="##42b883" stroke="#000000" stroke-miterlimit="10" d="M136.25,274.06c-3.982-0.007-7.204-2.671-7.2-5.952l0.157-103.689
	c0.005-3.281,3.236-5.936,7.217-5.93l0,0c3.981,0.006,7.206,2.67,7.2,5.952l-0.156,103.688
	C143.464,271.411,140.232,274.066,136.25,274.06L136.25,274.06z"/>
<polygon fill="##42b883" stroke="#000000" stroke-miterlimit="10" points="77.396,89.525 61.745,89.788 53.691,76.365 61.289,62.679 
	76.94,62.416 84.994,75.839 "/>
<polygon fill="##42b883" stroke="#000000" stroke-miterlimit="10" points="76.825,226.746 61.174,227.009 53.12,213.586 
	60.718,199.9 76.369,199.637 84.423,213.06 "/>
</svg>
